# Blender v2.78 (sub 0) OBJ File: 'assets.blend'
# www.blender.org
mtllib armoire.mtl
o Cube.013_Cube.017
v -3.333333 6.025000 0.000000
v -0.666667 6.025000 0.000000
v -2.000000 6.025000 0.000000
v -2.666667 6.025000 0.000000
v -1.333333 6.025000 0.000000
v -3.333333 5.037500 0.000000
v -2.000000 5.037500 0.000000
v -1.333333 5.037500 0.000000
v -0.666667 5.037500 0.000000
v -2.666667 5.037500 0.000000
v -0.666667 8.012500 0.000000
v -2.666667 8.012500 0.000000
v -3.333333 8.012500 0.000000
v -2.000000 8.012500 0.000000
v -1.333333 8.012500 0.000000
v -3.273432 7.952599 -0.531904
v -3.273432 6.025000 -0.531904
v -0.726568 5.097402 -0.531904
v -0.726568 6.025000 -0.531904
v -2.000000 8.012500 -0.531904
v -2.666667 5.037500 -0.531904
v -1.333333 8.012500 -0.531904
v -3.273432 5.097402 -0.531904
v -2.000000 5.037500 -0.531904
v -1.333333 5.037500 -0.531904
v -0.726568 7.952599 -0.531904
v -2.666667 8.012500 -0.531904
v -3.333333 8.012500 -0.531904
v -3.333333 6.025000 -0.531904
v -0.666667 5.037500 -0.531904
v -0.666667 6.025000 -0.531904
v -3.333333 5.037500 -0.531904
v -2.000000 5.097402 -0.531904
v -1.333333 5.097402 -0.531904
v -2.666667 5.097402 -0.531904
v -0.666667 8.012500 -0.531904
v -2.666667 7.952599 -0.531904
v -1.333333 7.952599 -0.531904
v -2.000000 7.952599 -0.531904
v -2.000000 7.952599 -0.006578
v -2.000000 6.025000 -0.006578
v -2.666667 5.097402 -0.006578
v -2.666667 6.025000 -0.006578
v -1.333333 7.952599 -0.006578
v -1.333333 6.025000 -0.006578
v -3.273432 6.025000 -0.006578
v -0.726568 6.025000 -0.006578
v -2.000000 5.097402 -0.006578
v -1.333333 5.097402 -0.006578
v -2.666667 7.952599 -0.006578
v -3.273432 7.952599 -0.006578
v -0.726568 5.097402 -0.006578
v -3.273432 5.097402 -0.006578
v -0.726568 7.952599 -0.006578
vt 0.5650 0.6142
vt 0.5650 0.7230
vt 0.6384 0.7230
vt 0.6384 0.6142
vt 0.3448 0.6142
vt 0.3448 0.7230
vt 0.4182 0.7230
vt 0.4182 0.6142
vt 0.4916 0.6142
vt 0.4916 0.7230
vt 0.5650 0.8317
vt 0.6384 0.8317
vt 0.3448 0.8317
vt 0.4182 0.8317
vt 0.4916 0.8317
vt 0.3514 0.8251
vt 0.3514 0.7230
vt 0.3514 0.7230
vt 0.3514 0.8251
vt 0.6319 0.7230
vt 0.6319 0.8251
vt 0.6319 0.8251
vt 0.6319 0.7230
vt 0.5650 0.8251
vt 0.4916 0.8251
vt 0.4916 0.8251
vt 0.5650 0.8251
vt 0.4182 0.6208
vt 0.4916 0.6208
vt 0.4916 0.6208
vt 0.4182 0.6208
vt 0.5650 0.6208
vt 0.6319 0.6208
vt 0.6319 0.6208
vt 0.5650 0.6208
vt 0.4182 0.8251
vt 0.4182 0.8251
vt 0.3514 0.6208
vt 0.3514 0.6208
vt 0.6384 0.8317
vt 0.6384 0.7230
vt 0.4182 0.6142
vt 0.3448 0.6142
vt 0.4182 0.8317
vt 0.4916 0.8317
vt 0.3448 0.7230
vt 0.5650 0.8317
vt 0.6384 0.6142
vt 0.5650 0.6142
vt 0.4916 0.6142
vt 0.3448 0.8317
vt 0.5650 0.7230
vt 0.4182 0.7230
vt 0.4916 0.7230
vn 0.0000 0.0000 1.0000
vn -1.0000 0.0000 0.0000
vn 1.0000 0.0000 0.0000
vn 0.0000 -1.0000 0.0000
vn 0.0000 1.0000 0.0000
vn 0.0000 0.0000 -1.0000
usemtl None
s off
f 10/1/1 4/2/1 1/3/1 6/4/1
f 9/5/1 2/6/1 5/7/1 8/8/1
f 7/9/1 3/10/1 4/2/1 10/1/1
f 8/8/1 5/7/1 3/10/1 7/9/1
f 4/2/1 12/11/1 13/12/1 1/3/1
f 2/6/1 11/13/1 15/14/1 5/7/1
f 3/10/1 14/15/1 12/11/1 4/2/1
f 5/7/1 15/14/1 14/15/1 3/10/1
f 26/16/2 19/17/2 47/18/2 54/19/2
f 17/20/3 16/21/3 51/22/3 46/23/3
f 37/24/4 39/25/4 40/26/4 50/27/4
f 34/28/5 33/29/5 48/30/5 49/31/5
f 35/32/5 23/33/5 53/34/5 42/35/5
f 38/36/4 26/16/4 54/19/4 44/37/4
f 23/33/3 17/20/3 46/23/3 53/34/3
f 18/38/5 34/28/5 49/31/5 52/39/5
f 1/3/2 13/12/2 28/40/2 29/41/2
f 9/5/4 8/8/4 25/42/4 30/43/4
f 14/15/5 15/14/5 22/44/5 20/45/5
f 2/6/3 9/5/3 30/43/3 31/46/3
f 13/12/5 12/11/5 27/47/5 28/40/5
f 10/1/4 6/4/4 32/48/4 21/49/4
f 8/8/4 7/9/4 24/50/4 25/42/4
f 15/14/5 11/13/5 36/51/5 22/44/5
f 6/4/2 1/3/2 29/41/2 32/48/2
f 11/13/3 2/6/3 31/46/3 36/51/3
f 7/9/4 10/1/4 21/49/4 24/50/4
f 12/11/5 14/15/5 20/45/5 27/47/5
f 16/21/6 17/20/6 29/41/6 28/40/6
f 18/38/6 19/17/6 31/46/6 30/43/6
f 17/20/6 23/33/6 32/48/6 29/41/6
f 33/29/6 34/28/6 25/42/6 24/50/6
f 35/32/6 33/29/6 24/50/6 21/49/6
f 34/28/6 18/38/6 30/43/6 25/42/6
f 23/33/6 35/32/6 21/49/6 32/48/6
f 19/17/6 26/16/6 36/51/6 31/46/6
f 37/24/6 16/21/6 28/40/6 27/47/6
f 26/16/6 38/36/6 22/44/6 36/51/6
f 39/25/6 37/24/6 27/47/6 20/45/6
f 38/36/6 39/25/6 20/45/6 22/44/6
f 42/35/6 53/34/6 46/23/6 43/52/6
f 52/39/6 49/31/6 45/53/6 47/18/6
f 48/30/6 42/35/6 43/52/6 41/54/6
f 49/31/6 48/30/6 41/54/6 45/53/6
f 43/52/6 46/23/6 51/22/6 50/27/6
f 47/18/6 45/53/6 44/37/6 54/19/6
f 41/54/6 43/52/6 50/27/6 40/26/6
f 45/53/6 41/54/6 40/26/6 44/37/6
f 33/29/5 35/32/5 42/35/5 48/30/5
f 39/25/4 38/36/4 44/37/4 40/26/4
f 19/17/2 18/38/2 52/39/2 47/18/2
f 16/21/4 37/24/4 50/27/4 51/22/4
