mtllib ./button_dead.mtl
g door_button_dead
v 0 1.121647 -0.1969437
v 0 1.121647 -0.1136105
v 0 1.184147 -0.1136105
v 0 1.184147 -0.1969437
v 0 1.059147 -0.1969437
v 0 1.059147 -0.1136105
v -0.02029375 1.181784 -0.1159737
v -0.01352925 1.181784 -0.1159737
v -0.01352925 1.181784 -0.1945805
v -0.02029375 1.181784 -0.1945805
v 0 1.121647 -0.1136105
v -0.02029375 1.121647 -0.1136105
v -0.02029375 1.184147 -0.1136105
v 0 1.184147 -0.1136105
v 0 1.059147 -0.1136105
v -0.02029375 1.059147 -0.1136105
v 0 1.059147 -0.1969437
v -0.02029375 1.059147 -0.1969437
v -0.02029375 1.059147 -0.1136105
v 0 1.059147 -0.1136105
v 0 1.184147 -0.1136105
v -0.02029375 1.184147 -0.1136105
v -0.02029375 1.184147 -0.1969437
v 0 1.184147 -0.1969437
v 0 1.121647 -0.1969437
v -0.02029375 1.121647 -0.1969437
v -0.02029375 1.059147 -0.1969437
v 0 1.059147 -0.1969437
v 0 1.184147 -0.1969437
v -0.02029375 1.184147 -0.1969437
v -0.02029375 1.06151 -0.1159737
v -0.02029375 1.059147 -0.1136105
v -0.02029375 1.059147 -0.1969437
v -0.02029375 1.06151 -0.1945805
v -0.02029375 1.121647 -0.1159737
v -0.02029375 1.121647 -0.1136105
v -0.02029375 1.181784 -0.1159737
v -0.02029375 1.184147 -0.1136105
v -0.02029375 1.181784 -0.1945805
v -0.02029375 1.184147 -0.1969437
v -0.02029375 1.121647 -0.1945805
v -0.02029375 1.121647 -0.1969437
v -0.01352925 1.121647 -0.121884
v -0.01922025 1.121647 -0.121884
v -0.01922025 1.175873 -0.121884
v -0.01352925 1.175873 -0.121884
v -0.01352925 1.06742 -0.121884
v -0.01922025 1.06742 -0.121884
v -0.02029375 1.121647 -0.1945805
v -0.01352925 1.121647 -0.1945805
v -0.01352925 1.06151 -0.1945805
v -0.02029375 1.06151 -0.1945805
v -0.02029375 1.181784 -0.1945805
v -0.01352925 1.181784 -0.1945805
v -0.02029375 1.121647 -0.1159737
v -0.01352925 1.121647 -0.1159737
v -0.01352925 1.181784 -0.1159737
v -0.02029375 1.181784 -0.1159737
v -0.02029375 1.06151 -0.1159737
v -0.01352925 1.06151 -0.1159737
v -0.02029375 1.06151 -0.1945805
v -0.01352925 1.06151 -0.1945805
v -0.01352925 1.06151 -0.1159737
v -0.02029375 1.06151 -0.1159737
v -0.01352925 1.175873 -0.18867
v -0.01922025 1.175873 -0.18867
v -0.01922025 1.121647 -0.18867
v -0.01352925 1.121647 -0.18867
v -0.01922025 1.06742 -0.18867
v -0.01352925 1.06742 -0.18867
v -0.01352925 1.06742 -0.121884
v -0.01352925 1.06151 -0.1159737
v -0.01352925 1.06151 -0.1945805
v -0.01352925 1.06742 -0.18867
v -0.01352925 1.121647 -0.1945805
v -0.01352925 1.121647 -0.18867
v -0.01352925 1.181784 -0.1945805
v -0.01352925 1.175873 -0.18867
v -0.01352925 1.181784 -0.1159737
v -0.01352925 1.175873 -0.121884
v -0.01352925 1.121647 -0.1159737
v -0.01352925 1.121647 -0.121884
v -0.01922025 1.121647 -0.18867
v -0.01922025 1.175873 -0.18867
v -0.01922025 1.175873 -0.121884
v -0.01922025 1.121647 -0.121884
v -0.01922025 1.06742 -0.18867
v -0.01922025 1.06742 -0.121884
v -0.01352925 1.06742 -0.18867
v -0.01922025 1.06742 -0.18867
v -0.01922025 1.06742 -0.121884
v -0.01352925 1.06742 -0.121884
v -0.01352925 1.175873 -0.121884
v -0.01922025 1.175873 -0.121884
v -0.01922025 1.175873 -0.18867
v -0.01352925 1.175873 -0.18867

vn 1 0 0
vn 1 0 0
vn 1 0 0
vn 1 0 0
vn 1 0 0
vn 1 0 0
vn 0 -0.9999999 0
vn 0 -0.9999999 0
vn 0 -0.9999999 0
vn 0 -0.9999999 0
vn 0 0 1
vn 0 0 1
vn 0 0 1
vn 0 0 1
vn 0 0 1
vn 0 0 1
vn 0 -1 0
vn 0 -1 0
vn 0 -1 0
vn 0 -1 0
vn 0 1 0
vn 0 1 0
vn 0 1 0
vn 0 1 0
vn 0 0 -1
vn 0 0 -1
vn 0 0 -1
vn 0 0 -1
vn 0 0 -1
vn 0 0 -1
vn -1 0 0
vn -1 0 0
vn -1 0 0
vn -1 0 0
vn -1 0 0
vn -0.9999999 0 0
vn -1 0 0
vn -1 0 0
vn -1 0 0
vn -1 0 0
vn -1 0 0
vn -0.9999999 0 0
vn 0 0 0.9999999
vn 0 0 0.9999999
vn 0 0 1
vn 0 0 1
vn 0 0 1
vn 0 0 1
vn 0 0 0.9999999
vn 0 0 0.9999999
vn 0 0 1
vn 0 0 1
vn 0 0 1
vn 0 0 1
vn 0 0 -0.9999999
vn 0 0 -0.9999999
vn 0 0 -1
vn 0 0 -1
vn 0 0 -1
vn 0 0 -1
vn 0 0.9999999 0
vn 0 0.9999999 0
vn 0 0.9999999 0
vn 0 0.9999999 0
vn 0 0 -1
vn 0 0 -1
vn 0 0 -0.9999999
vn 0 0 -0.9999999
vn 0 0 -1
vn 0 0 -1
vn -1 0 0
vn -1 0 0
vn -1 0 0
vn -1 0 0
vn -1 0 0
vn -1 0 0
vn -1 0 0
vn -1 0 0
vn -1 0 0
vn -1 0 0
vn -1 0 0
vn -1 0 0
vn -1 0 0
vn -1 0 0
vn -1 0 0
vn -1 0 0
vn -1 0 0
vn -1 0 0
vn 0 -1 0
vn 0 -1 0
vn 0 -1 0
vn 0 -1 0
vn 0 1 0
vn 0 1 0
vn 0 1 0
vn 0 1 0

vt 0.890341 0.8457361
vt 0.9736743 0.8457361
vt 0.9736743 0.9082361
vt 0.890341 0.9082361
vt 0.890341 0.7832361
vt 0.9736743 0.7832361
vt 0.971311 0.9058729
vt 0.971311 0.9058729
vt 0.8927043 0.9058729
vt 0.8927043 0.9058729
vt 0.9736743 0.8457361
vt 0.9736743 0.8457361
vt 0.9736743 0.9082361
vt 0.9736743 0.9082361
vt 0.9736743 0.7832361
vt 0.9736743 0.7832361
vt 0.890341 0.7832361
vt 0.890341 0.7832361
vt 0.9736743 0.7832361
vt 0.9736743 0.7832361
vt 0.9736743 0.9082361
vt 0.9736743 0.9082361
vt 0.890341 0.9082361
vt 0.890341 0.9082361
vt 0.890341 0.8457361
vt 0.890341 0.8457361
vt 0.890341 0.7832361
vt 0.890341 0.7832361
vt 0.890341 0.9082361
vt 0.890341 0.9082361
vt 0.971311 0.7855993
vt 0.9736743 0.7832361
vt 0.890341 0.7832361
vt 0.8927043 0.7855993
vt 0.971311 0.8457361
vt 0.9736743 0.8457361
vt 0.971311 0.9058729
vt 0.9736743 0.9082361
vt 0.8927043 0.9058729
vt 0.890341 0.9082361
vt 0.8927043 0.8457361
vt 0.890341 0.8457361
vt 0.9654008 0.8457361
vt 0.9654008 0.8457361
vt 0.9654008 0.8999624
vt 0.9654008 0.8999624
vt 0.9654008 0.7915098
vt 0.9654008 0.7915098
vt 0.8927043 0.8457361
vt 0.8927043 0.8457361
vt 0.8927043 0.7855993
vt 0.8927043 0.7855993
vt 0.8927043 0.9058729
vt 0.8927043 0.9058729
vt 0.971311 0.8457361
vt 0.971311 0.8457361
vt 0.971311 0.9058729
vt 0.971311 0.9058729
vt 0.971311 0.7855993
vt 0.971311 0.7855993
vt 0.8927043 0.7855993
vt 0.8927043 0.7855993
vt 0.971311 0.7855993
vt 0.971311 0.7855993
vt 0.8986148 0.8999624
vt 0.8986148 0.8999624
vt 0.8986148 0.8457361
vt 0.8986148 0.8457361
vt 0.8986148 0.7915098
vt 0.8986148 0.7915098
vt 0.9654008 0.7915098
vt 0.971311 0.7855993
vt 0.8927043 0.7855993
vt 0.8986148 0.7915098
vt 0.8927043 0.8457361
vt 0.8986148 0.8457361
vt 0.8927043 0.9058729
vt 0.8986148 0.8999624
vt 0.971311 0.9058729
vt 0.9654008 0.8999624
vt 0.971311 0.8457361
vt 0.9654008 0.8457361
vt 0.3810793 0.7122571
vt 0.3810793 0.9584897
vt 0.6843431 0.9584897
vt 0.6843431 0.7122571
vt 0.3810793 0.4660245
vt 0.6843431 0.4660245
vt 0.8986148 0.7915098
vt 0.8986148 0.7915098
vt 0.9654008 0.7915098
vt 0.9654008 0.7915098
vt 0.9654008 0.8999624
vt 0.9654008 0.8999624
vt 0.8986148 0.8999624
vt 0.8986148 0.8999624

g M_PaintMetal
usemtl M_PaintMetal
usemap M_PaintMetal
f 2/2/2 1/1/1 3/3/3
f 3/3/3 1/1/1 4/4/4
f 2/2/2 5/5/5 1/1/1
f 6/6/6 5/5/5 2/2/2
f 8/8/8 7/7/7 9/9/9
f 9/9/9 7/7/7 10/10/10
f 12/12/12 11/11/11 13/13/13
f 13/13/13 11/11/11 14/14/14
f 12/12/12 15/15/15 11/11/11
f 16/16/16 15/15/15 12/12/12
f 18/18/18 17/17/17 19/19/19
f 19/19/19 17/17/17 20/20/20
f 22/22/22 21/21/21 23/23/23
f 23/23/23 21/21/21 24/24/24
f 26/26/26 25/25/25 27/27/27
f 27/27/27 25/25/25 28/28/28
f 26/26/26 29/29/29 25/25/25
f 30/30/30 29/29/29 26/26/26
f 44/44/44 43/43/43 45/45/45
f 45/45/45 43/43/43 46/46/46
f 44/44/44 47/47/47 43/43/43
f 48/48/48 47/47/47 44/44/44
f 50/50/50 49/49/49 51/51/51
f 51/51/51 49/49/49 52/52/52
f 50/50/50 53/53/53 49/49/49
f 54/54/54 53/53/53 50/50/50
f 56/56/56 55/55/55 57/57/57
f 57/57/57 55/55/55 58/58/58
f 56/56/56 59/59/59 55/55/55
f 60/60/60 59/59/59 56/56/56
f 62/62/62 61/61/61 63/63/63
f 63/63/63 61/61/61 64/64/64
f 66/66/66 65/65/65 67/67/67
f 67/67/67 65/65/65 68/68/68
f 67/67/67 68/68/68 69/69/69
f 69/69/69 68/68/68 70/70/70
f 90/90/90 89/89/89 91/91/91
f 91/91/91 89/89/89 92/92/92
f 94/94/94 93/93/93 95/95/95
f 95/95/95 93/93/93 96/96/96

g M_BrushedMetal
usemtl M_BrushedMetal
usemap M_BrushedMetal
f 32/32/32 31/31/31 33/33/33
f 33/33/33 31/31/31 34/34/34
f 32/32/32 35/35/35 31/31/31
f 36/36/36 35/35/35 32/32/32
f 36/36/36 37/37/37 35/35/35
f 38/38/38 37/37/37 36/36/36
f 38/38/38 39/39/39 37/37/37
f 40/40/40 39/39/39 38/38/38
f 40/40/40 41/41/41 39/39/39
f 42/42/42 41/41/41 40/40/40
f 33/33/33 34/34/34 42/42/42
f 42/42/42 34/34/34 41/41/41
f 72/72/72 71/71/71 73/73/73
f 73/73/73 71/71/71 74/74/74
f 73/73/73 74/74/74 75/75/75
f 75/75/75 74/74/74 76/76/76
f 75/75/75 76/76/76 77/77/77
f 77/77/77 76/76/76 78/78/78
f 77/77/77 78/78/78 79/79/79
f 79/79/79 78/78/78 80/80/80
f 79/79/79 80/80/80 81/81/81
f 81/81/81 80/80/80 82/82/82
f 81/81/81 82/82/82 72/72/72
f 72/72/72 82/82/82 71/71/71

g M_Green
usemtl M_Green
usemap M_Green
f 84/84/84 83/83/83 85/85/85
f 85/85/85 83/83/83 86/86/86
f 83/83/83 87/87/87 86/86/86
f 86/86/86 87/87/87 88/88/88
