# Blender v2.78 (sub 0) OBJ File: 'assets.blend'
# www.blender.org
mtllib door_button.mtl
o Cube.008_Cube.012
v -0.000000 4.236587 -0.787775
v -0.000000 4.236587 -0.454442
v -0.000000 4.736587 -0.787775
v -0.000000 4.736587 -0.454442
v -0.081175 4.246040 -0.463895
v -0.081175 4.246040 -0.778322
v -0.081175 4.727134 -0.778322
v -0.081175 4.727134 -0.463895
v -0.081175 4.236587 -0.454442
v -0.081175 4.236587 -0.787775
v -0.081175 4.736587 -0.787775
v -0.081175 4.736587 -0.454442
v -0.054117 4.269682 -0.487536
v -0.054117 4.269682 -0.754680
v -0.054117 4.703492 -0.754680
v -0.054117 4.703492 -0.487536
v -0.000000 4.486587 -0.787775
v -0.000000 4.486587 -0.454442
v -0.081175 4.486587 -0.787775
v -0.081175 4.486587 -0.454442
v -0.081175 4.486587 -0.778322
v -0.081175 4.486587 -0.463895
v -0.054117 4.486587 -0.754680
v -0.054117 4.486587 -0.487536
v -0.054117 4.246040 -0.463895
v -0.054117 4.246040 -0.778322
v -0.054117 4.486587 -0.778322
v -0.054117 4.486587 -0.463895
v -0.054117 4.727134 -0.463895
v -0.054117 4.727134 -0.778322
v -0.076881 4.486587 -0.487536
v -0.076881 4.486587 -0.754680
v -0.076881 4.269682 -0.487536
v -0.076881 4.269682 -0.754680
v -0.076881 4.703492 -0.487536
v -0.076881 4.703492 -0.754680
vt 0.1958 0.5000
vt 0.1958 0.9564
vt 0.8042 0.9564
vt 0.8042 0.5000
vt 0.7870 0.9391
vt 0.2130 0.9391
vt 0.2130 0.9391
vt 0.7870 0.9391
vt 0.8042 0.9564
vt 0.8042 0.5000
vt 0.1958 0.0436
vt 0.8042 0.0436
vt 0.8042 0.0436
vt 0.1958 0.0436
vt 0.1958 0.9564
vt 0.1958 0.5000
vt 0.7870 0.0609
vt 0.2130 0.0609
vt 0.2130 0.5000
vt 0.7870 0.5000
vt 0.7438 0.5000
vt 0.7438 0.8960
vt 0.7438 0.8960
vt 0.7438 0.5000
vt 0.2130 0.0609
vt 0.2130 0.5000
vt 0.7870 0.5000
vt 0.7870 0.0609
vt 0.2562 0.8960
vt 0.2562 0.5000
vt 0.2562 0.5000
vt 0.2562 0.8960
vt 0.7438 0.1040
vt 0.2562 0.1040
vt 0.2562 0.1040
vt 0.7438 0.1040
vn 1.0000 0.0000 0.0000
vn 0.0000 -1.0000 0.0000
vn 0.0000 0.0000 1.0000
vn 0.0000 1.0000 -0.0000
vn 0.0000 0.0000 -1.0000
vn -1.0000 0.0000 -0.0000
usemtl None
s off
f 17/1/1 3/2/1 4/3/1 18/4/1
f 8/5/2 7/6/2 30/7/2 29/8/2
f 18/4/3 4/3/3 12/9/3 20/10/3
f 1/11/2 2/12/2 9/13/2 10/14/2
f 4/3/4 3/2/4 11/15/4 12/9/4
f 17/1/5 1/11/5 10/14/5 19/16/5
f 5/17/6 6/18/6 10/14/6 9/13/6
f 21/19/6 7/6/6 11/15/6 19/16/6
f 22/20/6 5/17/6 9/13/6 20/10/6
f 7/6/6 8/5/6 12/9/6 11/15/6
f 24/21/3 16/22/3 35/23/3 31/24/3
f 21/19/3 6/18/3 26/25/3 27/26/3
f 22/20/5 8/5/5 29/8/5 28/27/5
f 6/18/4 5/17/4 25/28/4 26/25/4
f 5/17/5 22/20/5 28/27/5 25/28/5
f 7/6/3 21/19/3 27/26/3 30/7/3
f 15/29/5 23/30/5 32/31/5 36/32/5
f 8/5/6 22/20/6 20/10/6 12/9/6
f 6/18/6 21/19/6 19/16/6 10/14/6
f 3/2/5 17/1/5 19/16/5 11/15/5
f 2/12/3 18/4/3 20/10/3 9/13/3
f 1/11/1 17/1/1 18/4/1 2/12/1
f 13/33/6 14/34/6 26/25/6 25/28/6
f 14/34/6 23/30/6 27/26/6 26/25/6
f 16/22/6 24/21/6 28/27/6 29/8/6
f 15/29/6 16/22/6 29/8/6 30/7/6
f 23/30/6 15/29/6 30/7/6 27/26/6
f 24/21/6 13/33/6 25/28/6 28/27/6
f 32/31/6 31/24/6 35/23/6 36/32/6
f 34/35/6 33/36/6 31/24/6 32/31/6
f 14/34/2 13/33/2 33/36/2 34/35/2
f 13/33/3 24/21/3 31/24/3 33/36/3
f 16/22/4 15/29/4 36/32/4 35/23/4
f 23/30/5 14/34/5 34/35/5 32/31/5
