mtllib ./emergency_trapdoor.mtl
g default
v -0.3333333 0.25 0.01354425
v -0.3333333 0.4668895 0.01354425
v -0.5 0.4668895 0.01354425
v -0.5 0.25 0.01354425
v -0.1872773 0.25 0.01354425
v -0.1872773 0.4668895 0.01354425
v -0.6666667 0.4668895 0.01354425
v -0.6666667 0.25 0.01354425
v -0.8127227 0.4668895 0.01354425
v -0.8127227 0.25 0.01354425
v -0.6666667 0.0206105 0.01354425
v -0.8127227 0.0206105 0.01354425
v -0.5 0.0206105 0.01354425
v -0.1872773 0.0206105 0.01354425
v -0.3333333 0.0206105 0.01354425
v -0.3333333 0.25 0.04754425
v -0.5 0.25 0.04754425
v -0.5 0.4668895 0.04754425
v -0.3333333 0.4668895 0.04754425
v -0.1872773 0.25 0.04754425
v -0.1872773 0.4668895 0.04754425
v -0.6666667 0.4668895 0.04754425
v -0.6666667 0.25 0.04754425
v -0.8127227 0.4668895 0.04754425
v -0.8127227 0.25 0.04754425
v -0.6666667 0.0206105 0.04754425
v -0.8127227 0.0206105 0.04754425
v -0.5 0.0206105 0.04754425
v -0.1872773 0.0206105 0.04754425
v -0.3333333 0.0206105 0.04754425
v -0.6666667 0.0206105 0.01354425
v -0.6666667 0.0206105 0.04754425
v -0.5 0.0206105 0.04754425
v -0.6666667 0.0206105 0.01354425
v -0.5 0.0206105 0.04754425
v -0.5 0.0206105 0.01354425
v -0.5 0.0206105 0.01354425
v -0.5 0.0206105 0.04754425
v -0.3333333 0.0206105 0.04754425
v -0.5 0.0206105 0.01354425
v -0.3333333 0.0206105 0.04754425
v -0.3333333 0.0206105 0.01354425
v -0.3333333 0.0206105 0.01354425
v -0.3333333 0.0206105 0.04754425
v -0.1872773 0.0206105 0.04754425
v -0.3333333 0.0206105 0.01354425
v -0.1872773 0.0206105 0.04754425
v -0.1872773 0.0206105 0.01354425
v -0.8127227 0.0206105 0.01354425
v -0.6666667 0.0206105 0.04754425
v -0.6666667 0.0206105 0.01354425
v -0.8127227 0.0206105 0.01354425
v -0.8127227 0.0206105 0.04754425
v -0.6666667 0.0206105 0.04754425
v -0.1872773 0.0206105 0.01354425
v -0.1872773 0.0206105 0.04754425
v -0.1872773 0.25 0.04754425
v -0.1872773 0.0206105 0.01354425
v -0.1872773 0.25 0.04754425
v -0.1872773 0.25 0.01354425
v -0.1872773 0.25 0.01354425
v -0.1872773 0.25 0.04754425
v -0.1872773 0.4668895 0.04754425
v -0.1872773 0.25 0.01354425
v -0.1872773 0.4668895 0.04754425
v -0.1872773 0.4668895 0.01354425
v -0.8127227 0.25 0.01354425
v -0.8127227 0.25 0.04754425
v -0.8127227 0.0206105 0.04754425
v -0.8127227 0.25 0.01354425
v -0.8127227 0.0206105 0.04754425
v -0.8127227 0.0206105 0.01354425
v -0.8127227 0.4668895 0.01354425
v -0.8127227 0.25 0.04754425
v -0.8127227 0.25 0.01354425
v -0.8127227 0.4668895 0.01354425
v -0.8127227 0.4668895 0.04754425
v -0.8127227 0.25 0.04754425
v -0.5 0.4668895 0.01354425
v -0.5 0.4668895 0.04754425
v -0.6666667 0.4668895 0.04754425
v -0.5 0.4668895 0.01354425
v -0.6666667 0.4668895 0.04754425
v -0.6666667 0.4668895 0.01354425
v -0.3333333 0.4668895 0.01354425
v -0.5 0.4668895 0.04754425
v -0.5 0.4668895 0.01354425
v -0.3333333 0.4668895 0.01354425
v -0.3333333 0.4668895 0.04754425
v -0.5 0.4668895 0.04754425
v -0.1872773 0.4668895 0.01354425
v -0.3333333 0.4668895 0.04754425
v -0.3333333 0.4668895 0.01354425
v -0.1872773 0.4668895 0.01354425
v -0.1872773 0.4668895 0.04754425
v -0.3333333 0.4668895 0.04754425
v -0.6666667 0.4668895 0.01354425
v -0.6666667 0.4668895 0.04754425
v -0.8127227 0.4668895 0.04754425
v -0.6666667 0.4668895 0.01354425
v -0.8127227 0.4668895 0.04754425
v -0.8127227 0.4668895 0.01354425

vn 0 0 -1
vn 0 0 -1
vn 0 0 -0.9999999
vn 0 0 -1
vn 0 0 -1
vn 0 0 -1
vn 0 0 -0.9999999
vn 0 0 -1
vn 0 0 -1
vn 0 0 -1
vn 0 0 -1
vn 0 0 -1
vn 0 0 -1
vn 0 0 -1
vn 0 0 -1
vn 0 0 1
vn 0 0 1
vn 0 0 0.9999999
vn 0 0 1
vn 0 0 1
vn 0 0 1
vn 0 0 0.9999999
vn 0 0 1
vn 0 0 1
vn 0 0 1
vn 0 0 1
vn 0 0 1
vn 0 0 1
vn 0 0 1
vn 0 0 1
vn 0 -1 0
vn 0 -1 0
vn 0 -1 0
vn 0 -1 0
vn 0 -1 0
vn 0 -1 0
vn 0 -1 0
vn 0 -1 0
vn 0 -1 0
vn 0 -1 0
vn 0 -1 0
vn 0 -1 0
vn 0 -1 0
vn 0 -1 0
vn 0 -1 0
vn 0 -1 0
vn 0 -1 0
vn 0 -1 0
vn 0 -1 0
vn 0 -1 0
vn 0 -1 0
vn 0 -1 0
vn 0 -1 0
vn 0 -1 0
vn 1 0 0
vn 1 0 0
vn 1 0 0
vn 1 0 0
vn 1 0 0
vn 1 0 0
vn 1 0 0
vn 1 0 0
vn 1 0 0
vn 1 0 0
vn 1 0 0
vn 1 0 0
vn -1 0 0
vn -1 0 0
vn -1 0 0
vn -1 0 0
vn -1 0 0
vn -1 0 0
vn -1 0 0
vn -1 0 0
vn -1 0 0
vn -1 0 0
vn -1 0 0
vn -1 0 0
vn 0 1 0
vn 0 1 0
vn 0 1 0
vn 0 1 0
vn 0 1 0
vn 0 1 0
vn 0 1 0
vn 0 1 0
vn 0 1 0
vn 0 1 0
vn 0 1 0
vn 0 1 0
vn 0 1 0
vn 0 1 0
vn 0 1 0
vn 0 1 0
vn 0 1 0
vn 0 1 0
vn 0 1 0
vn 0 1 0
vn 0 1 0
vn 0 1 0
vn 0 1 0
vn 0 1 0

vt 0.4182 0.1696
vt 0.4182 0.2651
vt 0.4916 0.2651
vt 0.4916 0.1696
vt 0.3538 0.1696
vt 0.3538 0.2651
vt 0.565 0.2651
vt 0.565 0.1696
vt 0.6294 0.2651
vt 0.6294 0.1696
vt 0.565 0.0685
vt 0.6294 0.0685
vt 0.4916 0.0685
vt 0.3538 0.0685
vt 0.4182 0.0685
vt 0.4182 0.1696
vt 0.4916 0.1696
vt 0.4916 0.2651
vt 0.4182 0.2651
vt 0.3538 0.1696
vt 0.3538 0.2651
vt 0.565 0.2651
vt 0.565 0.1696
vt 0.6294 0.2651
vt 0.6294 0.1696
vt 0.565 0.0685
vt 0.6294 0.0685
vt 0.4916 0.0685
vt 0.3538 0.0685
vt 0.4182 0.0685
vt 0.565 0.0685
vt 0.565 0.0685
vt 0.4916 0.0685
vt 0.565 0.0685
vt 0.4916 0.0685
vt 0.4916 0.0685
vt 0.4916 0.0685
vt 0.4916 0.0685
vt 0.4182 0.0685
vt 0.4916 0.0685
vt 0.4182 0.0685
vt 0.4182 0.0685
vt 0.4182 0.0685
vt 0.4182 0.0685
vt 0.3538 0.0685
vt 0.4182 0.0685
vt 0.3538 0.0685
vt 0.3538 0.0685
vt 0.6294 0.0685
vt 0.565 0.0685
vt 0.565 0.0685
vt 0.6294 0.0685
vt 0.6294 0.0685
vt 0.565 0.0685
vt 0.3538 0.0685
vt 0.3538 0.0685
vt 0.3538 0.1696
vt 0.3538 0.0685
vt 0.3538 0.1696
vt 0.3538 0.1696
vt 0.3538 0.1696
vt 0.3538 0.1696
vt 0.3538 0.2651
vt 0.3538 0.1696
vt 0.3538 0.2651
vt 0.3538 0.2651
vt 0.6294 0.1696
vt 0.6294 0.1696
vt 0.6294 0.0685
vt 0.6294 0.1696
vt 0.6294 0.0685
vt 0.6294 0.0685
vt 0.6294 0.2651
vt 0.6294 0.1696
vt 0.6294 0.1696
vt 0.6294 0.2651
vt 0.6294 0.2651
vt 0.6294 0.1696
vt 0.4916 0.2651
vt 0.4916 0.2651
vt 0.565 0.2651
vt 0.4916 0.2651
vt 0.565 0.2651
vt 0.565 0.2651
vt 0.4182 0.2651
vt 0.4916 0.2651
vt 0.4916 0.2651
vt 0.4182 0.2651
vt 0.4182 0.2651
vt 0.4916 0.2651
vt 0.3538 0.2651
vt 0.4182 0.2651
vt 0.4182 0.2651
vt 0.3538 0.2651
vt 0.3538 0.2651
vt 0.4182 0.2651
vt 0.565 0.2651
vt 0.565 0.2651
vt 0.6294 0.2651
vt 0.565 0.2651
vt 0.6294 0.2651
vt 0.6294 0.2651

g M_PaintMetal
usemtl M_PaintMetal
usemap M_PaintMetal
f 2/2/2 1/1/1 3/3/3
f 3/3/3 1/1/1 4/4/4
f 2/2/2 5/5/5 1/1/1
f 6/6/6 5/5/5 2/2/2
f 3/3/3 4/4/4 7/7/7
f 7/7/7 4/4/4 8/8/8
f 7/7/7 8/8/8 9/9/9
f 9/9/9 8/8/8 10/10/10
f 8/8/8 11/11/11 10/10/10
f 10/10/10 11/11/11 12/12/12
f 4/4/4 13/13/13 8/8/8
f 8/8/8 13/13/13 11/11/11
f 5/5/5 14/14/14 1/1/1
f 1/1/1 14/14/14 15/15/15
f 1/1/1 15/15/15 4/4/4
f 4/4/4 15/15/15 13/13/13
f 17/17/17 16/16/16 18/18/18
f 18/18/18 16/16/16 19/19/19
f 16/16/16 20/20/20 19/19/19
f 19/19/19 20/20/20 21/21/21
f 22/22/22 17/17/17 18/18/18
f 23/23/23 17/17/17 22/22/22
f 24/24/24 23/23/23 22/22/22
f 25/25/25 23/23/23 24/24/24
f 25/25/25 26/26/26 23/23/23
f 27/27/27 26/26/26 25/25/25
f 26/26/26 28/28/28 23/23/23
f 23/23/23 28/28/28 17/17/17
f 16/16/16 29/29/29 20/20/20
f 30/30/30 29/29/29 16/16/16
f 28/28/28 30/30/30 17/17/17
f 17/17/17 30/30/30 16/16/16
f 32/32/32 31/31/31 33/33/33
f 35/35/35 34/34/34 36/36/36
f 38/38/38 37/37/37 39/39/39
f 41/41/41 40/40/40 42/42/42
f 44/44/44 43/43/43 45/45/45
f 47/47/47 46/46/46 48/48/48
f 50/50/50 49/49/49 51/51/51
f 53/53/53 52/52/52 54/54/54
f 56/56/56 55/55/55 57/57/57
f 59/59/59 58/58/58 60/60/60
f 62/62/62 61/61/61 63/63/63
f 65/65/65 64/64/64 66/66/66
f 68/68/68 67/67/67 69/69/69
f 71/71/71 70/70/70 72/72/72
f 74/74/74 73/73/73 75/75/75
f 77/77/77 76/76/76 78/78/78
f 80/80/80 79/79/79 81/81/81
f 83/83/83 82/82/82 84/84/84
f 86/86/86 85/85/85 87/87/87
f 89/89/89 88/88/88 90/90/90
f 92/92/92 91/91/91 93/93/93
f 95/95/95 94/94/94 96/96/96
f 98/98/98 97/97/97 99/99/99
f 101/101/101 100/100/100 102/102/102
