# Blender v2.78 (sub 0) OBJ File: 'assets.blend'
# www.blender.org
mtllib ground_2.mtl
o Cube.002_Cube.005
v -4.000000 0.000000 0.000000
v -4.000000 0.000000 -4.000000
v 0.000000 0.000000 0.000000
v 0.000000 0.000000 -4.000000
v -3.829331 0.000000 -3.829331
v -3.829331 0.000000 -0.170669
v -0.170669 0.000000 -3.829331
v -0.170669 0.000000 -0.170669
v -3.829331 -0.086029 -3.829331
v -3.829331 -0.086029 -0.170669
v -0.170669 -0.086029 -3.829331
v -0.170669 -0.086029 -0.170669
v -2.000000 0.000000 -3.829331
v -2.000000 0.000000 0.000000
v -2.000000 0.000000 -4.000000
v -2.000000 0.000000 -0.170669
v -2.000000 -0.086029 -3.829331
v -2.000000 -0.086029 -0.170669
v -1.333333 0.000000 0.000000
v -0.666667 0.000000 0.000000
v -1.390223 0.000000 -0.170669
v -0.780446 0.000000 -0.170669
v -1.390223 -0.086029 -0.170669
v -0.780446 -0.086029 -0.170669
v -0.780446 0.000000 -3.829331
v -1.390223 0.000000 -3.829331
v -0.666667 0.000000 -4.000000
v -1.333333 0.000000 -4.000000
v -0.780446 -0.086029 -3.829331
v -1.390223 -0.086029 -3.829331
v -2.609777 0.000000 -3.829331
v -3.219554 0.000000 -3.829331
v -2.666667 0.000000 -4.000000
v -3.333333 0.000000 -4.000000
v -2.609777 -0.086029 -3.829331
v -3.219554 -0.086029 -3.829331
v -3.333333 0.000000 0.000000
v -2.666667 0.000000 0.000000
v -3.219554 0.000000 -0.170669
v -2.609777 0.000000 -0.170669
v -3.219554 -0.086029 -0.170669
v -2.609777 -0.086029 -0.170669
v -3.666796 -0.086029 -3.666796
v -3.729157 -0.086029 -3.729157
v -3.666796 -0.086029 -0.333204
v -3.729156 -0.086029 -0.270843
v -0.333204 -0.086029 -3.666796
v -0.270843 -0.086029 -3.729157
v -0.333204 -0.086029 -0.333204
v -0.270843 -0.086029 -0.270843
v -1.968820 -0.086029 -3.666796
v -2.000000 -0.086029 -3.729157
v -2.031180 -0.086029 -3.666796
v -2.031180 -0.086029 -0.333204
v -2.000000 -0.086029 -0.270843
v -1.968820 -0.086029 -0.333204
v -1.465188 -0.086029 -0.333204
v -1.423614 -0.086029 -0.270843
v -1.402828 -0.086029 -0.333204
v -0.836835 -0.086029 -0.333204
v -0.899196 -0.086029 -0.333204
v -0.847229 -0.086029 -0.270843
v -0.836836 -0.086029 -3.666796
v -0.847229 -0.086029 -3.729157
v -0.899196 -0.086029 -3.666796
v -1.465188 -0.086029 -3.666796
v -1.402828 -0.086029 -3.666796
v -1.423615 -0.086029 -3.729157
v -2.576386 -0.086029 -3.729157
v -2.597172 -0.086029 -3.666796
v -2.534812 -0.086029 -3.666796
v -3.163165 -0.086029 -3.666796
v -3.100804 -0.086029 -3.666796
v -3.152771 -0.086029 -3.729157
v -3.152771 -0.086029 -0.270843
v -3.100804 -0.086029 -0.333204
v -3.163164 -0.086029 -0.333204
v -2.534812 -0.086029 -0.333204
v -2.597172 -0.086029 -0.333204
v -2.576385 -0.086029 -0.270843
v -3.666796 -0.150430 -0.333204
v -3.666796 -0.150430 -3.666796
v -3.163165 -0.150430 -3.666796
v -0.333204 -0.150430 -3.666796
v -0.333204 -0.150430 -0.333204
v -0.836835 -0.150430 -0.333204
v -1.968820 -0.150430 -3.666796
v -1.465188 -0.150430 -3.666796
v -2.031180 -0.150430 -0.333204
v -2.534812 -0.150430 -0.333204
v -1.968820 -0.150430 -0.333204
v -2.031180 -0.150430 -3.666796
v -1.465188 -0.150430 -0.333204
v -0.899196 -0.150430 -0.333204
v -1.402828 -0.150430 -0.333204
v -0.836836 -0.150430 -3.666796
v -1.402828 -0.150430 -3.666796
v -0.899196 -0.150430 -3.666796
v -2.534812 -0.150430 -3.666796
v -3.100804 -0.150430 -3.666796
v -2.597172 -0.150430 -3.666796
v -3.163164 -0.150430 -0.333204
v -2.597172 -0.150430 -0.333204
v -3.100804 -0.150430 -0.333204
v -3.829331 0.000000 -2.000000
v -0.170669 0.000000 -2.000000
v -4.000000 0.000000 -2.000000
v 0.000000 0.000000 -2.000000
v -3.829331 -0.086029 -2.000000
v -0.170669 -0.086029 -2.000000
v -3.729156 -0.086029 -2.000000
v -3.666796 -0.086029 -2.000000
v -0.270843 -0.086029 -2.000000
v -0.333204 -0.086029 -2.000000
v -1.968820 -0.086029 -2.000000
v -2.031180 -0.086029 -2.000000
v -1.402828 -0.086029 -2.000000
v -1.465188 -0.086029 -2.000000
v -0.836836 -0.086029 -2.000000
v -0.899196 -0.086029 -2.000000
v -3.100804 -0.086029 -2.000000
v -3.163165 -0.086029 -2.000000
v -2.534812 -0.086029 -2.000000
v -2.597172 -0.086029 -2.000000
v -3.666796 -0.150430 -2.000000
v -0.333204 -0.150430 -2.000000
v -1.968820 -0.150430 -2.000000
v -2.031180 -0.150430 -2.000000
v -1.402828 -0.150430 -2.000000
v -1.465188 -0.150430 -2.000000
v -0.836836 -0.150430 -2.000000
v -0.899196 -0.150430 -2.000000
v -3.100804 -0.150430 -2.000000
v -3.163165 -0.150430 -2.000000
v -2.534812 -0.150430 -2.000000
v -2.597172 -0.150430 -2.000000
vt 0.9624 0.3981
vt 0.9624 0.4777
vt 0.9499 0.4777
vt 0.9499 0.3981
vt 0.0249 0.2611
vt 0.0249 0.5000
vt 0.0000 0.5223
vt 0.0000 0.2611
vt 0.4692 0.5000
vt 0.5580 0.5000
vt 0.5829 0.5223
vt 0.4857 0.5223
vt 0.5580 0.2611
vt 0.5580 0.0223
vt 0.5829 0.0000
vt 0.5829 0.2611
vt 0.1137 0.0223
vt 0.0249 0.0223
vt 0.0000 0.0000
vt 0.0971 0.0000
vt 0.5186 0.9869
vt 0.5186 0.9117
vt 0.5332 0.9204
vt 0.5332 1.0000
vt 0.9624 0.0796
vt 0.9624 0.0000
vt 0.9749 0.0000
vt 0.9749 0.0796
vt 0.9875 0.2389
vt 0.9875 0.0000
vt 1.0000 0.0000
vt 1.0000 0.2389
vt 0.9875 0.2389
vt 0.9875 0.4777
vt 0.9749 0.4777
vt 0.9749 0.2389
vt 0.5186 0.6106
vt 0.5186 0.5354
vt 0.5332 0.5223
vt 0.5332 0.6019
vt 0.8031 0.6529
vt 0.8031 0.4353
vt 0.8125 0.4353
vt 0.8125 0.6529
vt 0.0146 0.9117
vt 0.0146 0.9869
vt 0.0000 1.0000
vt 0.0000 0.9204
vt 0.2666 0.9869
vt 0.2666 1.0000
vt 0.7032 0.6529
vt 0.7032 0.4353
vt 0.7126 0.4353
vt 0.7126 0.6529
vt 0.5613 0.5223
vt 0.5613 0.5880
vt 0.5519 0.5880
vt 0.5519 0.5223
vt 0.9624 0.3185
vt 0.9624 0.2389
vt 0.9749 0.2389
vt 0.9749 0.3185
vt 0.5186 0.7611
vt 0.5186 0.6859
vt 0.5332 0.6815
vt 0.5332 0.7611
vt 0.3803 0.0223
vt 0.2914 0.0223
vt 0.2914 0.0000
vt 0.3886 0.0000
vt 0.2026 0.5000
vt 0.2914 0.5000
vt 0.2914 0.5223
vt 0.1943 0.5223
vt 0.9624 0.1592
vt 0.9624 0.2389
vt 0.9499 0.2389
vt 0.9499 0.1592
vt 0.9624 0.0000
vt 0.9624 0.0796
vt 0.9499 0.0796
vt 0.9499 0.0000
vt 0.4692 0.0223
vt 0.4857 0.0000
vt 0.0146 0.7611
vt 0.0146 0.8364
vt 0.0000 0.8408
vt 0.0000 0.7611
vt 0.0146 0.6859
vt 0.0000 0.6815
vt 0.8031 0.6529
vt 0.8031 0.8705
vt 0.7937 0.8705
vt 0.7937 0.6529
vt 0.9624 0.1592
vt 0.9749 0.1592
vt 0.6844 0.6529
vt 0.6844 0.8705
vt 0.6751 0.8705
vt 0.6751 0.6529
vt 0.5186 0.8364
vt 0.5332 0.8408
vt 0.3803 0.5000
vt 0.3886 0.5223
vt 0.1137 0.5000
vt 0.0971 0.5223
vt 0.0146 0.5354
vt 0.0146 0.6106
vt 0.0000 0.6019
vt 0.0000 0.5223
vt 0.9624 0.4777
vt 0.9624 0.3981
vt 0.9749 0.3981
vt 0.2666 0.5354
vt 0.2666 0.5223
vt 0.2026 0.0223
vt 0.1943 0.0000
vt 0.9624 0.3185
vt 0.9499 0.3185
vt 0.0237 0.7652
vt 0.0237 0.7571
vt 0.5095 0.7571
vt 0.5095 0.7652
vt 0.5095 0.8310
vt 0.5095 0.8391
vt 0.5095 0.9130
vt 0.5095 0.9049
vt 0.0237 0.9130
vt 0.0237 0.9049
vt 0.0237 0.8310
vt 0.0237 0.8391
vt 0.0237 0.6832
vt 0.0237 0.6913
vt 0.0237 0.6093
vt 0.0237 0.6174
vt 0.5095 0.6174
vt 0.5095 0.6093
vt 0.5095 0.6913
vt 0.5095 0.6832
vt 0.5095 0.5435
vt 0.2666 0.5435
vt 0.0237 0.5435
vt 0.0237 0.9788
vt 0.2666 0.9788
vt 0.5095 0.9788
vt 0.2666 0.7652
vt 0.2666 0.7571
vt 0.2666 0.8391
vt 0.2666 0.8310
vt 0.2666 0.9130
vt 0.2666 0.9049
vt 0.2666 0.6174
vt 0.2666 0.6093
vt 0.2666 0.6913
vt 0.2666 0.6832
vt 0.5613 0.5880
vt 0.5613 0.6538
vt 0.5519 0.6538
vt 0.5519 0.5880
vt 0.8765 0.2176
vt 0.8765 0.0000
vt 0.9499 0.0000
vt 0.9499 0.2176
vt 0.8765 0.2176
vt 0.8765 0.4353
vt 0.8031 0.4353
vt 0.8031 0.2176
vt 0.6563 0.6529
vt 0.6563 0.8705
vt 0.5829 0.8705
vt 0.5829 0.6529
vt 0.7297 0.2176
vt 0.7297 0.4353
vt 0.6563 0.4353
vt 0.6563 0.2176
vt 0.8031 0.2176
vt 0.8031 0.4353
vt 0.7297 0.4353
vt 0.7297 0.2176
vt 0.6563 0.2176
vt 0.6563 0.4353
vt 0.5829 0.4353
vt 0.5829 0.2176
vt 0.7843 0.6529
vt 0.7843 0.8705
vt 0.7749 0.8705
vt 0.7749 0.6529
vt 0.5707 0.5880
vt 0.5707 0.6538
vt 0.5613 0.6538
vt 0.5613 0.5880
vt 0.6657 0.6529
vt 0.6657 0.4353
vt 0.6751 0.4353
vt 0.6751 0.6529
vt 0.7032 0.6529
vt 0.7032 0.8705
vt 0.6938 0.8705
vt 0.6938 0.6529
vt 0.5425 0.5880
vt 0.5425 0.6538
vt 0.5332 0.6538
vt 0.5332 0.5880
vt 0.5707 0.5880
vt 0.5707 0.5223
vt 0.5801 0.5223
vt 0.5801 0.5880
vt 0.6563 0.6529
vt 0.6563 0.4353
vt 0.6657 0.4353
vt 0.6657 0.6529
vt 0.8125 0.6529
vt 0.8125 0.4353
vt 0.8218 0.4353
vt 0.8218 0.6529
vt 0.5425 0.5880
vt 0.5425 0.5223
vt 0.5519 0.5223
vt 0.5519 0.5880
vt 0.7937 0.6529
vt 0.7937 0.8705
vt 0.7843 0.8705
vt 0.7843 0.6529
vt 0.5801 0.5880
vt 0.5801 0.6538
vt 0.5707 0.6538
vt 0.5707 0.5880
vt 0.5332 0.5880
vt 0.5332 0.5223
vt 0.5425 0.5223
vt 0.5425 0.5880
vt 0.5519 0.5880
vt 0.5519 0.6538
vt 0.5425 0.6538
vt 0.5425 0.5880
vt 0.6938 0.6529
vt 0.6938 0.8705
vt 0.6844 0.8705
vt 0.6844 0.6529
vt 0.7314 0.4353
vt 0.7314 0.5010
vt 0.7220 0.5010
vt 0.7220 0.4353
vt 0.7220 0.6529
vt 0.7220 0.8705
vt 0.7126 0.8705
vt 0.7126 0.6529
vt 0.5613 0.5880
vt 0.5613 0.5223
vt 0.5707 0.5223
vt 0.5707 0.5880
vt 0.7314 0.5010
vt 0.7314 0.5668
vt 0.7220 0.5668
vt 0.7220 0.5010
vt 0.7220 0.4353
vt 0.7126 0.4353
vt 0.6938 0.4353
vt 0.6844 0.4353
vt 0.7937 0.4353
vt 0.7843 0.4353
vt 0.8125 0.8705
vt 0.8218 0.8705
vt 0.6563 0.8705
vt 0.6657 0.8705
vt 0.7032 0.4353
vt 0.6938 0.4353
vt 0.6657 0.8705
vt 0.6751 0.8705
vt 0.7843 0.4353
vt 0.7749 0.4353
vt 0.6563 0.0000
vt 0.5829 0.0000
vt 0.8031 0.0000
vt 0.7297 0.0000
vt 0.7297 0.0000
vt 0.6563 0.0000
vt 0.6563 0.4353
vt 0.5829 0.4353
vt 0.8765 0.0000
vt 0.8031 0.0000
vt 0.8765 0.4353
vt 0.9499 0.4353
vt 0.6844 0.4353
vt 0.6751 0.4353
vt 0.8031 0.4353
vt 0.7937 0.4353
vt 0.7032 0.8705
vt 0.7126 0.8705
vt 0.8031 0.8705
vt 0.8125 0.8705
vt 0.9875 0.0000
vt 0.9749 0.0000
vt 0.9875 0.4777
vt 1.0000 0.4777
vn 0.0000 0.0000 1.0000
vn 0.0000 1.0000 0.0000
vn 0.0000 0.0000 -1.0000
vn -1.0000 0.0000 0.0000
vn 1.0000 0.0000 0.0000
usemtl None
s off
f 32/1/1 5/2/1 9/3/1 36/4/1
f 105/5/2 5/6/2 2/7/2 107/8/2
f 25/9/2 7/10/2 4/11/2 27/12/2
f 106/13/2 8/14/2 3/15/2 108/16/2
f 39/17/2 6/18/2 1/19/2 37/20/2
f 50/21/2 62/22/2 24/23/2 12/24/2
f 22/25/3 8/26/3 12/27/3 24/28/3
f 106/29/4 7/30/4 11/31/4 110/32/4
f 105/33/5 6/34/5 10/35/5 109/36/5
f 75/37/2 46/38/2 10/39/2 41/40/2
f 122/41/4 72/42/4 83/43/4 134/44/4
f 64/45/2 48/46/2 11/47/2 29/48/2
f 113/49/2 50/21/2 12/24/2 110/50/2
f 114/51/4 47/52/4 84/53/4 126/54/4
f 53/55/1 71/56/1 99/57/1 92/58/1
f 40/59/3 16/60/3 18/61/3 42/62/3
f 55/63/2 80/64/2 42/65/2 18/66/2
f 21/67/2 16/68/2 14/69/2 19/70/2
f 31/71/2 13/72/2 15/73/2 33/74/2
f 26/75/1 13/76/1 17/77/1 30/78/1
f 7/79/1 25/80/1 29/81/1 11/82/1
f 25/80/1 26/75/1 30/78/1 29/81/1
f 8/14/2 22/83/2 20/84/2 3/15/2
f 22/83/2 21/67/2 19/70/2 20/84/2
f 52/85/2 68/86/2 30/87/2 17/88/2
f 68/86/2 64/45/2 29/48/2 30/87/2
f 69/89/2 52/85/2 17/88/2 35/90/2
f 115/91/5 56/92/5 91/93/5 127/94/5
f 16/60/3 21/95/3 23/96/3 18/61/3
f 21/95/3 22/25/3 24/28/3 23/96/3
f 121/97/5 76/98/5 104/99/5 133/100/5
f 62/22/2 58/101/2 23/102/2 24/23/2
f 13/72/2 26/103/2 28/104/2 15/73/2
f 26/103/2 25/9/2 27/12/2 28/104/2
f 5/6/2 32/105/2 34/106/2 2/7/2
f 32/105/2 31/71/2 33/74/2 34/106/2
f 44/107/2 74/108/2 36/109/2 9/110/2
f 74/108/2 69/89/2 35/90/2 36/109/2
f 6/111/3 39/112/3 41/113/3 10/35/3
f 39/112/3 40/59/3 42/62/3 41/113/3
f 111/114/2 44/107/2 9/110/2 109/115/2
f 80/64/2 75/37/2 41/40/2 42/65/2
f 58/101/2 55/63/2 18/66/2 23/102/2
f 16/68/2 40/116/2 38/117/2 14/69/2
f 40/116/2 39/17/2 37/20/2 38/117/2
f 13/76/1 31/118/1 35/119/1 17/77/1
f 31/118/1 32/1/1 36/4/1 35/119/1
f 51/120/2 52/85/2 53/121/2
f 54/122/2 55/63/2 56/123/2
f 57/124/2 58/101/2 59/125/2
f 60/126/2 61/127/2 62/22/2
f 63/128/2 64/45/2 65/129/2
f 66/130/2 67/131/2 68/86/2
f 69/89/2 70/132/2 71/133/2
f 72/134/2 73/135/2 74/108/2
f 75/37/2 76/136/2 77/137/2
f 78/138/2 79/139/2 80/64/2
f 111/114/2 46/38/2 45/140/2 112/141/2
f 74/108/2 44/107/2 43/142/2 72/134/2
f 113/49/2 48/46/2 47/143/2 114/144/2
f 62/22/2 50/21/2 49/145/2 60/126/2
f 68/86/2 52/85/2 51/120/2 66/130/2
f 80/64/2 55/63/2 54/122/2 78/138/2
f 115/146/2 51/120/2 53/121/2 116/147/2
f 55/63/2 58/101/2 57/124/2 56/123/2
f 58/101/2 62/22/2 61/127/2 59/125/2
f 48/46/2 64/45/2 63/128/2 47/143/2
f 64/45/2 68/86/2 67/131/2 65/129/2
f 117/148/2 67/131/2 66/130/2 118/149/2
f 119/150/2 63/128/2 65/129/2 120/151/2
f 52/85/2 69/89/2 71/133/2 53/121/2
f 69/89/2 74/108/2 73/135/2 70/132/2
f 46/38/2 75/37/2 77/137/2 45/140/2
f 75/37/2 80/64/2 79/139/2 76/136/2
f 121/152/2 73/135/2 72/134/2 122/153/2
f 123/154/2 71/133/2 70/132/2 124/155/2
f 47/156/1 63/157/1 96/158/1 84/159/1
f 131/160/2 86/161/2 85/162/2 126/163/2
f 129/164/2 95/165/2 94/166/2 132/167/2
f 127/168/2 91/169/2 93/170/2 130/171/2
f 133/172/2 104/173/2 103/174/2 136/175/2
f 135/176/2 90/177/2 89/178/2 128/179/2
f 125/180/2 81/181/2 102/182/2 134/183/2
f 116/184/4 53/185/4 92/186/4 128/187/4
f 65/188/1 67/189/1 97/190/1 98/191/1
f 123/192/5 78/193/5 90/194/5 135/195/5
f 112/196/5 45/197/5 81/198/5 125/199/5
f 70/200/1 73/201/1 100/202/1 101/203/1
f 60/204/3 49/205/3 85/206/3 86/207/3
f 117/208/5 59/209/5 95/210/5 129/211/5
f 124/212/4 70/213/4 101/214/4 136/215/4
f 56/216/3 57/217/3 93/218/3 91/219/3
f 118/220/4 66/221/4 88/222/4 130/223/4
f 72/224/1 43/225/1 82/226/1 83/227/1
f 45/228/3 77/229/3 102/230/3 81/231/3
f 66/232/1 51/233/1 87/234/1 88/235/1
f 119/236/5 60/237/5 86/238/5 131/239/5
f 59/240/3 61/241/3 94/242/3 95/243/3
f 120/244/4 65/245/4 98/246/4 132/247/4
f 76/248/3 79/249/3 103/250/3 104/251/3
f 78/252/3 54/253/3 89/254/3 90/255/3
f 61/256/4 120/244/4 132/247/4 94/257/4
f 63/258/5 119/236/5 131/239/5 96/259/5
f 57/260/4 118/220/4 130/223/4 93/261/4
f 79/262/4 124/212/4 136/215/4 103/263/4
f 67/264/5 117/208/5 129/211/5 97/265/5
f 43/266/5 112/196/5 125/199/5 82/267/5
f 71/268/5 123/192/5 135/195/5 99/269/5
f 54/270/4 116/184/4 128/187/4 89/271/4
f 82/272/2 125/180/2 134/183/2 83/273/2
f 99/274/2 135/176/2 128/179/2 92/275/2
f 100/276/2 133/172/2 136/175/2 101/277/2
f 87/278/2 127/168/2 130/171/2 88/279/2
f 97/280/2 129/164/2 132/167/2 98/281/2
f 96/282/2 131/160/2 126/163/2 84/283/2
f 78/138/2 123/154/2 124/155/2 79/139/2
f 76/136/2 121/152/2 122/153/2 77/137/2
f 60/126/2 119/150/2 120/151/2 61/127/2
f 59/125/2 117/148/2 118/149/2 57/124/2
f 56/123/2 115/146/2 116/147/2 54/122/2
f 50/21/2 113/49/2 114/144/2 49/145/2
f 44/107/2 111/114/2 112/141/2 43/142/2
f 46/38/2 111/114/2 109/115/2 10/39/2
f 73/284/5 121/97/5 133/100/5 100/285/5
f 51/286/5 115/91/5 127/94/5 87/287/5
f 49/288/4 114/51/4 126/54/4 85/289/4
f 48/46/2 113/49/2 110/50/2 11/47/2
f 77/290/4 122/41/4 134/44/4 102/291/4
f 5/292/5 105/33/5 109/36/5 9/293/5
f 8/294/4 106/29/4 110/32/4 12/295/4
f 7/10/2 106/13/2 108/16/2 4/11/2
f 6/18/2 105/5/2 107/8/2 1/19/2
