# Blender v2.78 (sub 0) OBJ File: 'assets.blend'
# www.blender.org
mtllib roof_1.mtl
o Cube.004_Cube.008
v -4.000000 0.000000 0.000000
v 0.000000 0.000000 0.000000
v -4.000000 0.000000 -4.000000
v 0.000000 0.000000 -4.000000
v -3.339031 0.000000 -3.339031
v -3.339031 0.000000 -0.660969
v -0.660969 0.000000 -0.660969
v -0.660969 0.000000 -3.339031
v -0.660969 0.000000 -2.000000
v -3.339031 0.000000 -2.000000
v 0.000000 0.000000 -2.000000
v -4.000000 0.000000 -2.000000
v -3.469467 0.000000 -3.469467
v -0.530533 0.000000 -3.469467
v -0.530533 0.000000 -2.000000
v -0.530533 0.000000 -0.530533
v -3.469467 0.000000 -2.000000
v -3.469467 0.000000 -0.530533
v -3.339031 -0.126283 -2.000000
v -0.660969 -0.126283 -2.000000
v -3.339031 -0.126283 -3.339031
v -0.660969 -0.126283 -3.339031
v -0.660969 -0.126283 -0.660969
v -3.339031 -0.126283 -0.660969
vt 0.8879 0.2005
vt 0.8879 0.0000
vt 0.9159 0.0000
vt 0.9159 0.2005
vt 0.7701 0.5195
vt 0.7701 0.0794
vt 0.8879 0.0000
vt 0.8879 0.5990
vt 0.1178 0.0794
vt 0.1178 0.5195
vt 0.0000 0.5990
vt 0.0000 0.0000
vt 0.4439 0.0794
vt 0.4439 0.0000
vt 0.4439 0.5195
vt 0.4439 0.5990
vt 0.9720 0.4010
vt 0.9720 0.2005
vt 1.0000 0.2005
vt 1.0000 0.4010
vt 0.1467 0.0990
vt 0.1467 0.5000
vt 0.7412 0.0990
vt 0.4439 0.0990
vt 0.4439 0.5000
vt 0.7412 0.5000
vt 0.2972 0.5990
vt 0.2972 1.0000
vt 0.0000 1.0000
vt 0.0000 0.5990
vt 0.5944 0.5990
vt 0.5944 1.0000
vt 0.9159 0.4010
vt 0.9159 0.0000
vt 0.9439 0.0000
vt 0.9439 0.4010
vt 0.8879 0.4010
vt 0.9159 0.4010
vt 0.9720 0.0000
vt 0.9720 0.4010
vt 0.9439 0.4010
vt 0.9439 0.0000
vt 1.0000 0.0000
vn -1.0000 0.0000 0.0000
vn 0.0000 -1.0000 -0.0000
vn 1.0000 0.0000 0.0000
vn 0.0000 0.0000 -1.0000
vn 0.0000 0.0000 1.0000
usemtl None
s off
f 10/1/1 5/2/1 21/3/1 19/4/1
f 18/5/2 16/6/2 2/7/2 1/8/2
f 14/9/2 13/10/2 3/11/2 4/12/2
f 15/13/2 14/9/2 4/12/2 11/14/2
f 17/15/2 18/5/2 1/8/2 12/16/2
f 13/10/2 17/15/2 12/16/2 3/11/2
f 16/6/2 15/13/2 11/14/2 2/7/2
f 8/17/3 9/18/3 20/19/3 22/20/3
f 8/21/2 5/22/2 13/10/2 14/9/2
f 7/23/2 9/24/2 15/13/2 16/6/2
f 5/22/2 10/25/2 17/15/2 13/10/2
f 6/26/2 7/23/2 16/6/2 18/5/2
f 9/24/2 8/21/2 14/9/2 15/13/2
f 10/25/2 6/26/2 18/5/2 17/15/2
f 20/27/2 19/28/2 21/29/2 22/30/2
f 23/31/2 24/32/2 19/28/2 20/27/2
f 5/33/4 8/34/4 22/35/4 21/36/4
f 6/37/1 10/1/1 19/4/1 24/38/1
f 7/39/5 6/40/5 24/41/5 23/42/5
f 9/18/3 7/39/3 23/43/3 20/19/3
