# Blender v2.78 (sub 0) OBJ File: 'assets.blend'
# www.blender.org
mtllib wall_part_1.mtl
o Cube.001_Cube.002
v -4.000000 0.000000 0.000000
v 0.000000 0.000000 0.000000
v -2.000000 0.000000 0.000000
v -1.333333 0.000000 0.000000
v -0.666667 0.000000 0.000000
v -3.333333 0.000000 0.000000
v -2.666667 0.000000 0.000000
v -4.000000 3.000000 1.000000
v -2.000000 3.000000 1.000000
v 0.000000 3.000000 1.000000
v -0.666667 3.000000 1.000000
v -1.333333 3.000000 1.000000
v -2.666667 3.000000 1.000000
v -3.333333 3.000000 1.000000
v 0.000000 1.000000 0.000000
v -4.000000 1.000000 0.000000
v -2.000000 1.000000 0.000000
v -0.666667 1.000000 0.000000
v -1.333333 1.000000 0.000000
v -2.666667 1.000000 0.000000
v -3.333333 1.000000 0.000000
v -4.000000 8.000000 0.000000
v 0.000000 8.000000 0.000000
v -2.000000 8.000000 0.000000
v -1.333333 8.000000 0.000000
v -0.666667 8.000000 0.000000
v -3.333333 8.000000 0.000000
v -2.666667 8.000000 0.000000
v 0.000000 1.950000 0.000000
v 0.000000 2.035355 0.035355
v -4.000000 2.035355 0.035355
v -4.000000 1.950000 0.000000
v -2.000000 2.035355 0.035355
v -2.000000 1.950000 0.000000
v -1.333333 2.035355 0.035355
v -1.333333 1.950000 0.000000
v -0.666667 1.950000 0.000000
v -0.666667 2.035355 0.035355
v -3.333333 2.035355 0.035355
v -3.333333 1.950000 0.000000
v -2.666667 1.950000 0.000000
v -2.666667 2.035355 0.035355
v -4.000000 4.050000 0.000000
v -4.000000 3.964645 0.035355
v 0.000000 3.964645 0.035355
v 0.000000 4.050000 0.000000
v -2.000000 4.050000 0.000000
v -2.000000 3.964645 0.035355
v -1.333333 4.050000 0.000000
v -1.333333 3.964645 0.035355
v -0.666667 3.964645 0.035355
v -0.666667 4.050000 0.000000
v -3.333333 4.050000 0.000000
v -3.333333 3.964645 0.035355
v -2.666667 3.964645 0.035355
v -2.666667 4.050000 0.000000
vt 0.6384 0.5055
vt 0.7119 0.5055
vt 0.7119 0.9405
vt 0.6384 0.9405
vt 0.4182 0.5055
vt 0.4916 0.5055
vt 0.4916 0.9405
vt 0.4182 0.9405
vt 0.4182 0.2836
vt 0.4916 0.2836
vt 0.4916 0.3898
vt 0.4182 0.3898
vt 0.6384 0.2836
vt 0.7119 0.2836
vt 0.7119 0.3898
vt 0.6384 0.3898
vt 0.6384 0.1696
vt 0.7119 0.1696
vt 0.7119 0.2742
vt 0.6384 0.2742
vt 0.3448 0.2836
vt 0.3448 0.3898
vt 0.5650 0.5055
vt 0.5650 0.9405
vt 0.3448 0.5055
vt 0.3448 0.9405
vt 0.5650 0.2836
vt 0.5650 0.3898
vt 0.4916 0.4961
vt 0.4182 0.4961
vt 0.4182 0.1696
vt 0.4916 0.1696
vt 0.4916 0.2742
vt 0.4182 0.2742
vt 0.5650 0.1696
vt 0.5650 0.2742
vt 0.2713 0.1696
vt 0.3448 0.1696
vt 0.3448 0.2742
vt 0.2713 0.2742
vt 0.5650 0.0594
vt 0.6384 0.0594
vt 0.4916 0.0594
vt 0.3448 0.0594
vt 0.4182 0.0594
vt 0.2713 0.0594
vt 0.7119 0.0594
vt 0.2713 0.3898
vt 0.3448 0.4961
vt 0.2713 0.4961
vt 0.2713 0.5055
vt 0.2713 0.9405
vt 0.5650 0.4961
vt 0.6384 0.4961
vt 0.2713 0.2836
vt 0.7119 0.4961
vn 0.0000 0.0000 -1.0000
vn 0.0000 0.7071 -0.7071
vn 0.0000 -0.7071 -0.7071
vn 0.0000 0.3827 -0.9239
vn -0.0000 -0.3827 -0.9239
usemtl None
s off
f 53/1/1 43/2/1 22/3/1 27/4/1
f 49/5/1 47/6/1 24/7/1 25/8/1
f 35/9/2 33/10/2 9/11/2 12/12/2
f 39/13/2 31/14/2 8/15/2 14/16/2
f 21/17/1 16/18/1 32/19/1 40/20/1
f 38/21/2 35/9/2 12/12/2 11/22/2
f 47/6/1 56/23/1 28/24/1 24/7/1
f 52/25/1 49/5/1 25/8/1 26/26/1
f 33/10/2 42/27/2 13/28/2 9/11/2
f 42/27/2 39/13/2 14/16/2 13/28/2
f 12/12/3 9/11/3 48/29/3 50/30/3
f 56/23/1 53/1/1 27/4/1 28/24/1
f 19/31/1 17/32/1 34/33/1 36/34/1
f 20/35/1 21/17/1 40/20/1 41/36/1
f 15/37/1 18/38/1 37/39/1 29/40/1
f 18/38/1 19/31/1 36/34/1 37/39/1
f 17/32/1 20/35/1 41/36/1 34/33/1
f 7/41/1 6/42/1 21/17/1 20/35/1
f 3/43/1 7/41/1 20/35/1 17/32/1
f 5/44/1 4/45/1 19/31/1 18/38/1
f 2/46/1 5/44/1 18/38/1 15/37/1
f 6/42/1 1/47/1 16/18/1 21/17/1
f 4/45/1 3/43/1 17/32/1 19/31/1
f 10/48/3 11/22/3 51/49/3 45/50/3
f 46/51/1 52/25/1 26/26/1 23/52/1
f 9/11/3 13/28/3 55/53/3 48/29/3
f 11/22/3 12/12/3 50/30/3 51/49/3
f 13/28/3 14/16/3 54/54/3 55/53/3
f 38/21/4 30/55/4 29/40/4 37/39/4
f 42/27/4 33/10/4 34/33/4 41/36/4
f 33/10/4 35/9/4 36/34/4 34/33/4
f 35/9/4 38/21/4 37/39/4 36/34/4
f 31/14/4 39/13/4 40/20/4 32/19/4
f 39/13/4 42/27/4 41/36/4 40/20/4
f 30/55/2 38/21/2 11/22/2 10/48/2
f 52/25/5 46/51/5 45/50/5 51/49/5
f 56/23/5 47/6/5 48/29/5 55/53/5
f 47/6/5 49/5/5 50/30/5 48/29/5
f 49/5/5 52/25/5 51/49/5 50/30/5
f 43/2/5 53/1/5 54/54/5 44/56/5
f 53/1/5 56/23/5 55/53/5 54/54/5
f 14/16/3 8/15/3 44/56/3 54/54/3
