# Blender v2.78 (sub 0) OBJ File: 'assets.blend'
# www.blender.org
mtllib wall_window.mtl
o Cube.005_Cube.009
v -4.000000 0.000000 0.000000
v 0.000000 0.000000 0.000000
v -2.000000 0.000000 0.000000
v -1.333333 0.000000 0.000000
v -0.666667 0.000000 0.000000
v -3.333333 0.000000 0.000000
v -2.666667 0.000000 0.000000
v -4.000000 3.000000 1.000000
v -2.000000 3.000000 1.000000
v 0.000000 3.000000 1.000000
v -0.666667 3.000000 1.000000
v -1.333333 3.000000 1.000000
v -2.666667 3.000000 1.000000
v -3.333333 3.000000 1.000000
v 0.000000 1.000000 0.000000
v -4.000000 1.000000 0.000000
v -2.000000 1.000000 0.000000
v -0.666667 1.000000 0.000000
v -1.333333 1.000000 0.000000
v -2.666667 1.000000 0.000000
v -3.333333 1.000000 0.000000
v -4.000000 8.000000 0.000000
v 0.000000 8.000000 0.000000
v -2.000000 8.000000 0.000000
v -1.333333 8.000000 0.000000
v -0.666667 8.000000 0.000000
v -3.333333 8.000000 0.000000
v -2.666667 8.000000 0.000000
v 0.000000 1.950000 0.000000
v 0.000000 2.035355 0.035355
v -4.000000 2.035355 0.035355
v -4.000000 1.950000 0.000000
v -2.000000 2.035355 0.035355
v -2.000000 1.950000 0.000000
v -1.333333 2.035355 0.035355
v -1.333333 1.950000 0.000000
v -0.666667 1.950000 0.000000
v -0.666667 2.035355 0.035355
v -3.333333 2.035355 0.035355
v -3.333333 1.950000 0.000000
v -2.666667 1.950000 0.000000
v -2.666667 2.035355 0.035355
v -4.000000 4.050000 0.000000
v -4.000000 3.964645 0.035355
v 0.000000 3.964645 0.035355
v 0.000000 4.050000 0.000000
v -2.000000 4.050000 0.000000
v -2.000000 3.964645 0.035355
v -1.333333 4.050000 0.000000
v -1.333333 3.964645 0.035355
v -0.666667 3.964645 0.035355
v -0.666667 4.050000 0.000000
v -3.333333 4.050000 0.000000
v -3.333333 3.964645 0.035355
v -2.666667 3.964645 0.035355
v -2.666667 4.050000 0.000000
v -3.333333 6.025000 0.000000
v -4.000000 6.025000 0.000000
v 0.000000 6.025000 0.000000
v -0.666667 6.025000 0.000000
v -2.588477 6.025000 0.000000
v -1.411523 6.025000 0.000000
v -3.333333 4.146192 0.000000
v 0.000000 4.146192 0.000000
v -2.000000 4.224382 0.000000
v -1.411523 4.224382 0.000000
v -4.000000 4.146192 0.000000
v -0.666667 4.146192 0.000000
v -2.588477 4.224382 0.000000
v -2.588477 7.921810 0.000000
v -2.000000 7.921810 0.000000
v -1.411523 7.921810 0.000000
v -2.666667 6.025000 0.000000
v -2.666667 4.146192 0.000000
v -1.333333 6.025000 0.000000
v -1.333333 4.146192 0.000000
v -2.000000 4.146192 0.000000
v -2.588477 7.921810 0.561606
v -2.000000 7.921810 0.561606
v -1.411523 7.921810 0.561606
v -2.588477 6.025000 0.561606
v -1.411523 6.025000 0.561606
v -2.000000 4.224382 0.561606
v -2.588477 4.224382 0.561606
v -1.411523 4.224382 0.561606
vt 0.7486 0.7230
vt 0.8220 0.7230
vt 0.8220 0.9405
vt 0.7486 0.9405
vt 0.5369 0.9319
vt 0.5369 0.7230
vt 0.5369 0.7230
vt 0.5369 0.9319
vt 0.5283 0.2836
vt 0.6017 0.2836
vt 0.6017 0.3898
vt 0.5283 0.3898
vt 0.7486 0.2836
vt 0.8220 0.2836
vt 0.8220 0.3898
vt 0.7486 0.3898
vt 0.7486 0.1696
vt 0.8220 0.1696
vt 0.8220 0.2742
vt 0.7486 0.2742
vt 0.4549 0.2836
vt 0.4549 0.3898
vt 0.5369 0.5247
vt 0.6017 0.5247
vt 0.6017 0.5247
vt 0.5369 0.5247
vt 0.4549 0.7230
vt 0.5283 0.7230
vt 0.5283 0.9405
vt 0.4549 0.9405
vt 0.6752 0.2836
vt 0.6752 0.3898
vt 0.6017 0.4961
vt 0.5283 0.4961
vt 0.6752 0.7230
vt 0.6752 0.9405
vt 0.5283 0.1696
vt 0.6017 0.1696
vt 0.6017 0.2742
vt 0.5283 0.2742
vt 0.6752 0.1696
vt 0.6752 0.2742
vt 0.3815 0.1696
vt 0.4549 0.1696
vt 0.4549 0.2742
vt 0.3815 0.2742
vt 0.6752 0.0594
vt 0.7486 0.0594
vt 0.6017 0.0594
vt 0.4549 0.0594
vt 0.5283 0.0594
vt 0.3815 0.0594
vt 0.8220 0.0594
vt 0.3815 0.3898
vt 0.4549 0.4961
vt 0.3815 0.4961
vt 0.3815 0.7230
vt 0.3815 0.9405
vt 0.6752 0.4961
vt 0.7486 0.4961
vt 0.3815 0.2836
vt 0.4549 0.5055
vt 0.3815 0.5055
vt 0.6752 0.5055
vt 0.6017 0.5055
vt 0.5283 0.5055
vt 0.8220 0.5055
vt 0.7486 0.5055
vt 0.8220 0.4961
vt 0.3815 0.5161
vt 0.4549 0.5161
vt 0.6752 0.5161
vt 0.7486 0.5161
vt 0.5283 0.5161
vt 0.6665 0.5247
vt 0.6665 0.7230
vt 0.6665 0.7230
vt 0.6665 0.5247
vt 0.6017 0.9319
vt 0.6017 0.9319
vt 0.8220 0.5161
vt 0.6017 0.5161
vt 0.6665 0.9319
vt 0.6017 0.9405
vt 0.6665 0.9319
vn 0.0000 0.0000 -1.0000
vn -1.0000 0.0000 0.0000
vn 0.0000 0.7071 -0.7071
vn 0.0000 1.0000 0.0000
vn 0.0000 -0.7071 -0.7071
vn 0.0000 0.3827 -0.9239
vn -0.0000 -0.3827 -0.9239
vn 1.0000 0.0000 0.0000
vn 0.0000 -1.0000 0.0000
usemtl None
s off
f 57/1/1 58/2/1 22/3/1 27/4/1
f 72/5/2 62/6/2 82/7/2 80/8/2
f 35/9/3 33/10/3 9/11/3 12/12/3
f 39/13/3 31/14/3 8/15/3 14/16/3
f 21/17/1 16/18/1 32/19/1 40/20/1
f 38/21/3 35/9/3 12/12/3 11/22/3
f 66/23/4 65/24/4 83/25/4 85/26/4
f 60/27/1 75/28/1 25/29/1 26/30/1
f 33/10/3 42/31/3 13/32/3 9/11/3
f 42/31/3 39/13/3 14/16/3 13/32/3
f 12/12/5 9/11/5 48/33/5 50/34/5
f 73/35/1 57/1/1 27/4/1 28/36/1
f 19/37/1 17/38/1 34/39/1 36/40/1
f 20/41/1 21/17/1 40/20/1 41/42/1
f 15/43/1 18/44/1 37/45/1 29/46/1
f 18/44/1 19/37/1 36/40/1 37/45/1
f 17/38/1 20/41/1 41/42/1 34/39/1
f 7/47/1 6/48/1 21/17/1 20/41/1
f 3/49/1 7/47/1 20/41/1 17/38/1
f 5/50/1 4/51/1 19/37/1 18/44/1
f 2/52/1 5/50/1 18/44/1 15/43/1
f 6/48/1 1/53/1 16/18/1 21/17/1
f 4/51/1 3/49/1 17/38/1 19/37/1
f 10/54/5 11/22/5 51/55/5 45/56/5
f 59/57/1 60/27/1 26/30/1 23/58/1
f 9/11/5 13/32/5 55/59/5 48/33/5
f 11/22/5 12/12/5 50/34/5 51/55/5
f 13/32/5 14/16/5 54/60/5 55/59/5
f 38/21/6 30/61/6 29/46/6 37/45/6
f 42/31/6 33/10/6 34/39/6 41/42/6
f 33/10/6 35/9/6 36/40/6 34/39/6
f 35/9/6 38/21/6 37/45/6 36/40/6
f 31/14/6 39/13/6 40/20/6 32/19/6
f 39/13/6 42/31/6 41/42/6 40/20/6
f 30/61/3 38/21/3 11/22/3 10/54/3
f 52/62/7 46/63/7 45/56/7 51/55/7
f 56/64/7 47/65/7 48/33/7 55/59/7
f 47/65/7 49/66/7 50/34/7 48/33/7
f 49/66/7 52/62/7 51/55/7 50/34/7
f 43/67/7 53/68/7 54/60/7 44/69/7
f 53/68/7 56/64/7 55/59/7 54/60/7
f 14/16/5 8/15/5 44/69/5 54/60/5
f 64/70/1 68/71/1 60/27/1 59/57/1
f 74/72/1 63/73/1 57/1/1 73/35/1
f 68/71/1 76/74/1 75/28/1 60/27/1
f 69/75/8 61/76/8 81/77/8 84/78/8
f 71/79/9 72/5/9 80/8/9 79/80/9
f 63/73/1 67/81/1 58/2/1 57/1/1
f 53/68/1 43/67/1 67/81/1 63/73/1
f 49/66/1 47/65/1 77/82/1 76/74/1
f 47/65/1 56/64/1 74/72/1 77/82/1
f 52/62/1 49/66/1 76/74/1 68/71/1
f 56/64/1 53/68/1 63/73/1 74/72/1
f 46/63/1 52/62/1 68/71/1 64/70/1
f 71/79/1 70/83/1 28/36/1 24/84/1
f 72/5/1 71/79/1 24/84/1 25/29/1
f 70/83/1 61/76/1 73/35/1 28/36/1
f 61/76/1 69/75/1 74/72/1 73/35/1
f 62/6/1 72/5/1 25/29/1 75/28/1
f 66/23/1 62/6/1 75/28/1 76/74/1
f 65/24/1 66/23/1 76/74/1 77/82/1
f 69/75/1 65/24/1 77/82/1 74/72/1
f 70/83/9 71/79/9 79/80/9 78/85/9
f 61/76/8 70/83/8 78/85/8 81/77/8
f 65/24/4 69/75/4 84/78/4 83/25/4
f 62/6/2 66/23/2 85/26/2 82/7/2
