# Blender v2.78 (sub 0) OBJ File: 'assets.blend'
# www.blender.org
mtllib window.mtl
o Cube.021_Cube.000
v 1.411523 6.025000 0.000000
v 2.588477 6.025000 0.000000
v 2.000000 4.224382 0.000000
v 2.588477 4.224382 0.000000
v 1.411523 4.224382 0.000000
v 1.411523 7.921810 0.000000
v 2.000000 7.921810 0.000000
v 2.588477 7.921810 0.000000
v 1.411523 7.921810 0.561606
v 2.000000 7.921810 0.561606
v 2.588477 7.921810 0.561606
v 1.411523 6.025000 0.561606
v 2.588477 6.025000 0.561606
v 2.000000 4.224382 0.561606
v 1.411523 4.224382 0.561606
v 2.588477 4.224382 0.561606
vt 0.8609 1.0000
vt 0.7219 1.0000
vt 0.7219 0.4870
vt 0.8609 0.4870
vt 0.8609 0.0000
vt 1.0000 0.0000
vt 1.0000 0.1592
vt 0.8609 0.1592
vt 0.7219 1.0000
vt 0.5828 1.0000
vt 0.5828 0.5130
vt 0.7219 0.5130
vt 1.0000 0.4775
vt 0.8609 0.4775
vt 0.8609 0.3183
vt 1.0000 0.3183
vt 1.0000 0.6366
vt 0.8609 0.6366
vt 0.5828 0.0000
vt 0.7219 0.0000
vt 1.0000 0.3183
vt 0.8609 0.3183
vt 0.7219 0.0000
vt 0.1457 0.0000
vt 0.2914 0.0000
vt 0.2914 0.5130
vt 0.2914 1.0000
vt 0.1457 1.0000
vt 0.0000 1.0000
vt 0.0000 0.5130
vt 0.0000 0.0000
vt 0.4371 0.0000
vt 0.4371 1.0000
vt 0.2914 1.0000
vt 0.2914 0.5130
vt 0.2914 0.0000
vn 1.0000 0.0000 0.0000
vn 0.0000 -1.0000 0.0000
vn -1.0000 0.0000 0.0000
vn 0.0000 1.0000 0.0000
vn 0.0000 0.0000 -1.0000
vn 0.0000 0.0000 1.0000
usemtl None
s off
f 8/1/1 11/2/1 13/3/1 2/4/1
f 4/5/2 16/6/2 14/7/2 3/8/2
f 5/9/3 15/10/3 12/11/3 1/12/3
f 7/13/4 10/14/4 11/15/4 8/16/4
f 6/17/4 9/18/4 10/14/4 7/13/4
f 1/12/3 12/11/3 9/19/3 6/20/3
f 3/8/2 14/7/2 15/21/2 5/22/2
f 2/4/1 13/3/1 16/23/1 4/5/1
f 7/24/5 8/25/5 2/26/5 4/27/5 3/28/5 5/29/5 1/30/5 6/31/5
f 10/32/6 9/19/6 12/11/6 15/10/6 14/33/6 16/34/6 13/35/6 11/36/6
